<svg xmlns="http://www.w3.org/2000/svg" aria-hidden="true">
  <symbol id="i-menu" viewBox="0 0 24 24"><path d="M4 7h16M4 12h11M4 17h16"/></symbol>
  <symbol id="i-chat" viewBox="0 0 24 24"><path d="M5 18.5 3.5 21l3.8-1.4c1.3.6 2.9.9 4.7.9 5 0 9-3.6 9-8s-4-8-9-8-9 3.6-9 8c0 2.3 1.1 4.4 2.9 5.8"/></symbol>
  <symbol id="i-plus" viewBox="0 0 24 24"><path d="M12 5v14M5 12h14"/></symbol>
  <symbol id="i-search" viewBox="0 0 24 24"><circle cx="10.5" cy="10.5" r="6.5"/><path d="m15.5 15.5 4 4"/></symbol>
  <symbol id="i-grid" viewBox="0 0 24 24"><rect x="4" y="4" width="6" height="6" rx="1"/><rect x="14" y="4" width="6" height="6" rx="1"/><rect x="4" y="14" width="6" height="6" rx="1"/><rect x="14" y="14" width="6" height="6" rx="1"/></symbol>
  <symbol id="i-settings" viewBox="0 0 24 24"><circle cx="12" cy="12" r="3"/><path d="M19 13.7v-3.4l-2-.5a7 7 0 0 0-.8-1.8l1.1-1.8-2.4-2.4-1.8 1.1a7 7 0 0 0-1.9-.8L10.7 2H7.3l-.5 2.1a7 7 0 0 0-1.8.8L3.2 3.8.8 6.2 2 8a7 7 0 0 0-.8 1.8l-2 .5v3.4l2 .5a7 7 0 0 0 .8 1.8l-1.2 1.8 2.4 2.4L5 19a7 7 0 0 0 1.8.8l.5 2.2h3.4l.5-2.2A7 7 0 0 0 13 19l1.9 1.2 2.4-2.4-1.1-1.8a7 7 0 0 0 .8-1.8z" transform="translate(3) scale(.75)"/></symbol>
  <symbol id="i-user" viewBox="0 0 24 24"><circle cx="12" cy="8" r="4"/><path d="M4.5 21c.8-4.2 3.3-6.5 7.5-6.5s6.7 2.3 7.5 6.5"/></symbol>
  <symbol id="i-paperclip" viewBox="0 0 24 24"><path d="m8.5 12.5 6.3-6.3a3.2 3.2 0 0 1 4.5 4.5l-8.1 8.1a5 5 0 0 1-7.1-7.1l8-8"/></symbol>
  <symbol id="i-tools" viewBox="0 0 24 24"><path d="m14 6 4-4 4 4-4 4M3 21l8.5-8.5M14.5 9.5l-5-5-2 2-3-3-2 2 3 3-2 2 5 5"/></symbol>
  <symbol id="i-send" viewBox="0 0 24 24"><path d="m4 12 16-8-5 16-3.2-6.8zM11.8 13.2 20 4"/></symbol>
  <symbol id="i-chevron" viewBox="0 0 24 24"><path d="m8 10 4 4 4-4"/></symbol>
  <symbol id="i-file" viewBox="0 0 24 24"><path d="M6 3h8l4 4v14H6zM14 3v5h4"/></symbol>
  <symbol id="i-spark" viewBox="0 0 24 24"><path d="M12 3c.5 4.8 3.2 7.5 8 8-4.8.5-7.5 3.2-8 8-.5-4.8-3.2-7.5-8-8 4.8-.5 7.5-3.2 8-8Z"/></symbol>
  <symbol id="i-code" viewBox="0 0 24 24"><path d="m8 7-5 5 5 5M16 7l5 5-5 5M14 4l-4 16"/></symbol>
  <symbol id="i-image" viewBox="0 0 24 24"><rect x="3" y="4" width="18" height="16" rx="2"/><circle cx="9" cy="9" r="2"/><path d="m4 18 5-5 3 3 2-2 6 5"/></symbol>
  <symbol id="i-memory" viewBox="0 0 24 24"><path d="M8 4a4 4 0 0 0-4 4c0 1 .4 2 1 2.7A4 4 0 0 0 7 18h1M16 4a4 4 0 0 1 4 4c0 1-.4 2-1 2.7A4 4 0 0 1 17 18h-1M9 8h6M9 12h6M9 16h6"/></symbol>
  <symbol id="i-panel" viewBox="0 0 24 24"><rect x="3" y="4" width="18" height="16" rx="2"/><path d="M15 4v16"/></symbol>
  <symbol id="i-moon" viewBox="0 0 24 24"><path d="M20 15.5A8 8 0 0 1 8.5 4 8.5 8.5 0 1 0 20 15.5Z"/></symbol>
  <symbol id="i-bell" viewBox="0 0 24 24"><path d="M6 9a6 6 0 0 1 12 0v5l2 3H4l2-3zM10 20h4"/></symbol>
</svg>
